HIERARCHY
ROOT Hips
{
	OFFSET 50.866501 -15.887416 96.886299
	CHANNELS 6 Xposition Yposition Zposition Xrotation Yrotation Zrotation
	JOINT spine
	{
		OFFSET 0.000000 -0.458068 7.965683
		CHANNELS 3 Xrotation Yrotation Zrotation
		JOINT spine1
		{
			OFFSET 0.000000 -0.000002 10.243103
			CHANNELS 3 Xrotation Yrotation Zrotation
			JOINT spine2
			{
				OFFSET 0.000000 -0.000002 9.814751
				CHANNELS 3 Xrotation Yrotation Zrotation
				JOINT Neck
				{
					OFFSET 0.000000 -1.201384 25.198593
					CHANNELS 3 Xrotation Yrotation Zrotation
					JOINT Head
					{
						OFFSET 0.000000 0.000000 7.613144
						CHANNELS 3 Xrotation Yrotation Zrotation
						End Site
						{
							OFFSET 0.000000 6.077326 18.428101
						}
					}
				}
				JOINT RightShoulder
				{
					OFFSET -4.132698 0.575450 10.599197
					CHANNELS 3 Xrotation Yrotation Zrotation
					JOINT RightArm
					{
						OFFSET 0.000000 -0.000003 13.901794
						CHANNELS 3 Xrotation Yrotation Zrotation
						JOINT RightArmRoll
						{
							OFFSET 0.000000 -0.000001 7.017883
							CHANNELS 3 Xrotation Yrotation Zrotation
							JOINT RightForeArm
							{
								OFFSET 0.000000 -0.000003 20.440598
								CHANNELS 3 Xrotation Yrotation Zrotation
								JOINT RightForeArmRoll
								{
									OFFSET 0.000000 -0.000002 7.875168
									CHANNELS 3 Xrotation Yrotation Zrotation
									JOINT RightHand
									{
										OFFSET 0.000000 -0.000002 15.803696
										CHANNELS 3 Xrotation Yrotation Zrotation
										End Site
										{
											OFFSET 0.000000 0.000000 0.100006
										}
									}
								}
							}
						}
					}
				}
				JOINT LeftShoulder
				{
					OFFSET 4.132698 0.575450 10.599197
					CHANNELS 3 Xrotation Yrotation Zrotation
					JOINT LeftArm
					{
						OFFSET 0.000000 -0.000003 13.901794
						CHANNELS 3 Xrotation Yrotation Zrotation
						JOINT LeftArmRoll
						{
							OFFSET 0.000000 -0.000001 7.017883
							CHANNELS 3 Xrotation Yrotation Zrotation
							JOINT LeftForeArm
							{
								OFFSET 0.000000 -0.000003 20.440598
								CHANNELS 3 Xrotation Yrotation Zrotation
								JOINT LeftForeArmRoll
								{
									OFFSET 0.000000 -0.000002 7.875168
									CHANNELS 3 Xrotation Yrotation Zrotation
									JOINT LeftHand
									{
										OFFSET 0.000000 -0.000002 15.803696
										CHANNELS 3 Xrotation Yrotation Zrotation
										End Site
										{
											OFFSET 0.000000 0.000000 0.100006
										}
									}
								}
							}
						}
					}
				}
			}
		}
	}
	JOINT RightUpLeg
	{
		OFFSET -7.060478 1.086101 -1.294701
		CHANNELS 3 Xrotation Yrotation Zrotation
		JOINT RightUpLegRoll
		{
			OFFSET 0.000000 -0.000003 18.530800
			CHANNELS 3 Xrotation Yrotation Zrotation
			JOINT RightLeg
			{
				OFFSET 0.000000 0.000003 -22.947601
				CHANNELS 3 Xrotation Yrotation Zrotation
				JOINT RightLegRoll
				{
					OFFSET 0.000000 -0.000004 23.022598
					CHANNELS 3 Xrotation Yrotation Zrotation
					JOINT RightFoot
					{
						OFFSET 0.000000 -0.000003 19.162498
						CHANNELS 3 Xrotation Yrotation Zrotation
						JOINT RightToeBase
						{
							OFFSET 0.000000 -0.000003 16.018799
							CHANNELS 3 Xrotation Yrotation Zrotation
							End Site
							{
								OFFSET 0.006790 0.894205 7.757812
							}
						}
					}
				}
			}
		}
	}
	JOINT LeftUpLeg
	{
		OFFSET 7.060478 1.086101 -1.294701
		CHANNELS 3 Xrotation Yrotation Zrotation
		JOINT LeftUpLegRoll
		{
			OFFSET 0.000000 -0.000003 18.530899
			CHANNELS 3 Xrotation Yrotation Zrotation
			JOINT LeftLeg
			{
				OFFSET 0.000000 -0.000004 22.947495
				CHANNELS 3 Xrotation Yrotation Zrotation
				JOINT LeftLegRoll
				{
					OFFSET 0.000000 -0.000004 23.235504
					CHANNELS 3 Xrotation Yrotation Zrotation
					JOINT LeftFoot
					{
						OFFSET 0.000000 -0.000004 18.949600
						CHANNELS 3 Xrotation Yrotation Zrotation
						JOINT LeftToeBase
						{
							OFFSET 0.000000 -0.000002 16.018799
							CHANNELS 3 Xrotation Yrotation Zrotation
							End Site
							{
								OFFSET -0.030430 0.894205 7.757812
							}
						}
					}
				}
			}
		}
	}
}
MOTION
Frames: 5
Frame Time: 0.041667
51.380901 -16.065220 96.720505 -7.189945 -0.227866 -2.997205 -0.492105 -0.140529 -0.413233 3.017097 -0.282629 -0.820829 4.662100 -0.292441 -0.817388 13.832206 4.825997 6.275429 10.362561 -4.695550 7.130276 -8.280572 -64.745569 -10.173965 -47.858026 -115.671822 -25.387386 0.000001 0.000013 -0.000003 8.541918 4.274426 -1.226131 -0.000002 0.000002 -3.013241 -5.000155 -7.999948 0.000008 -14.189832 65.850264 16.969808 -48.187862 113.644751 32.688435 -0.000002 0.000000 0.000001 3.823117 -1.146544 1.052828 -0.000005 0.000006 3.006821 -5.000186 8.000087 0.000005 6.680374 -172.644725 6.589162 -179.999991 0.000005 -1.317005 173.415306 -1.323222 -0.526731 -0.000003 -0.000003 0.114266 69.616259 6.967790 1.897279 25.456957 -7.355614 0.000002 7.322519 174.057508 -3.688619 -0.000020 -0.000004 -1.307760 -6.882598 2.447378 0.295381 0.000002 -0.000001 -0.115957 69.962632 -6.944112 -1.933028 25.456957 7.355622 -0.000004 
51.379200 -16.064619 96.718506 -7.186415 -0.228359 -2.989004 -0.494280 -0.141046 -0.413256 3.012788 -0.283636 -0.821243 4.657791 -0.293454 -0.817789 13.953840 4.834408 6.284472 10.317447 -4.678352 7.138573 -8.305057 -64.740877 -10.201625 -47.807725 -115.660825 -25.131170 -0.000001 0.000014 -0.000001 8.535337 4.443497 -1.234510 -0.000004 0.000003 -3.013242 -5.000151 -7.999948 0.000005 -14.162972 65.857797 16.939446 -48.228826 113.650659 32.741639 -0.000002 0.000000 0.000000 3.785913 -1.134998 1.052221 -0.000001 0.000006 3.006821 -5.000186 8.000087 0.000004 6.686428 -172.647798 6.587311 -179.999991 0.000005 -1.318002 173.434335 -1.324261 -0.526407 -0.000004 -0.000003 0.113514 69.606287 6.967779 1.897203 25.456948 -7.355616 0.000001 7.336743 174.081509 -3.641054 -0.000020 -0.000004 -1.307760 -6.836643 2.403697 0.291314 0.000002 -0.000000 -0.115877 69.964435 -6.944090 -1.933009 25.456953 7.355621 -0.000005 
51.365101 -16.062119 96.747498 -7.182606 -0.228845 -2.980270 -0.496552 -0.141547 -0.413254 3.008277 -0.284641 -0.821612 4.653291 -0.294463 -0.818146 14.076472 4.842280 6.293733 10.271844 -4.661397 7.147229 -8.329749 -64.737571 -10.229611 -47.754920 -115.648790 -24.873809 0.000000 0.000013 -0.000001 8.528717 4.610983 -1.242835 -0.000003 0.000002 -3.013238 -5.000155 -7.999949 0.000007 -14.134341 65.864976 16.907046 -48.264121 113.658357 32.793972 -0.000001 -0.000000 -0.000000 3.751257 -1.119597 1.051356 -0.000000 0.000006 3.006822 -5.000186 8.000088 0.000003 6.692695 -172.651869 6.585262 -179.999991 0.000005 -1.318002 173.454143 -1.324315 -0.525949 -0.000004 -0.000003 0.112723 69.595905 6.967787 1.897058 25.456952 -7.355614 0.000002 7.351071 174.105497 -3.591887 -0.000020 -0.000004 -1.307750 -6.789508 2.358462 0.287193 0.000002 -0.000000 -0.115802 69.966450 -6.944108 -1.932987 25.456955 7.355622 -0.000005 
51.369701 -16.062418 96.741791 -7.178607 -0.229324 -2.971143 -0.498890 -0.142037 -0.413237 3.003638 -0.285643 -0.821951 4.648652 -0.295470 -0.818472 14.199898 4.849791 6.303134 10.225638 -4.644603 7.156114 -8.354566 -64.735058 -10.257798 -47.703189 -115.634584 -24.618840 0.000001 0.000014 -0.000001 8.522096 4.777365 -1.251106 -0.000003 0.000002 -3.013240 -5.000157 -7.999948 0.000007 -14.104539 65.872066 16.873322 -48.295643 113.667250 32.845850 -0.000001 0.000000 0.000001 3.718392 -1.101496 1.050315 -0.000002 0.000005 3.006820 -5.000187 8.000088 0.000004 6.699135 -172.654943 6.583258 -179.999991 0.000005 -1.319000 173.474524 -1.324369 -0.524480 -0.000003 -0.000004 0.111911 69.585202 6.967778 1.897028 25.456953 -7.355617 0.000001 7.365459 174.130496 -3.541467 -0.000020 -0.000004 -1.307740 -6.741544 2.312150 0.283062 0.000002 0.000000 -0.115732 69.968676 -6.944102 -1.932946 25.456957 7.355621 -0.000004 
51.359798 -16.048416 96.763504 -7.174509 -0.229800 -2.961797 -0.501269 -0.142520 -0.413209 2.998919 -0.286645 -0.822272 4.643931 -0.296474 -0.818782 14.323729 4.857116 6.312623 10.179340 -4.627919 7.165178 -8.379462 -64.733043 -10.286095 -47.650224 -115.619912 -24.363174 0.000000 0.000014 0.000000 8.515493 4.943107 -1.259330 -0.000003 0.000002 -3.013240 -5.000157 -7.999948 0.000007 -14.073965 65.878909 16.838711 -48.326809 113.676006 32.899491 -0.000001 -0.000000 0.000000 3.686538 -1.081868 1.049188 -0.000004 0.000005 3.006821 -5.000184 8.000087 0.000005 6.705648 -172.659013 6.581117 -179.999991 0.000005 -1.319997 173.495192 -1.325414 -0.524116 -0.000004 -0.000004 0.111081 69.574308 6.967829 1.896824 25.456952 -7.355616 0.000002 7.379886 174.155480 -3.490398 -0.000020 -0.000005 -1.307730 -6.693123 2.265212 0.278961 0.000002 -0.000000 -0.115664 69.970903 -6.944089 -1.933006 25.456953 7.355621 -0.000003 
